<?xml version="1.0" encoding="UTF-8"?>
<svg width="72px" height="32px" viewBox="0 0 72 32" version="1.1" xmlns="http://www.w3.org/2000/svg" xmlns:xlink="http://www.w3.org/1999/xlink">
    <title>A7A89B63-D00D-428C-88A4-5BDFBB33C05D</title>
    <g id="Designs" stroke="none" stroke-width="1" fill="none" fill-rule="evenodd">
        <g id="Desktop---New-Game-Menu" transform="translate(-685.000000, -215.000000)">
            <g id="Group-7" transform="translate(490.000000, 215.000000)">
                <g id="Group-2" transform="translate(195.000000, 0.000000)">
                    <path d="M8.56166056,1.63437086 L16,9.073 L23.4383394,1.63437086 C24.6099123,0.462797986 26.5094073,0.462797986 27.6809801,1.63437086 L30.3656291,4.31901987 C31.537202,5.49059275 31.537202,7.39008768 30.3656291,8.56166056 L22.927,16 L30.3656291,23.4383394 C31.537202,24.6099123 31.537202,26.5094073 30.3656291,27.6809801 L27.6809801,30.3656291 C26.5094073,31.537202 24.6099123,31.537202 23.4383394,30.3656291 L16,22.927 L8.56166056,30.3656291 C7.39008768,31.537202 5.49059275,31.537202 4.31901987,30.3656291 L1.63437086,27.6809801 C0.462797986,26.5094073 0.462797986,24.6099123 1.63437086,23.4383394 L9.073,16 L1.63437086,8.56166056 C0.462797986,7.39008768 0.462797986,5.49059275 1.63437086,4.31901987 L4.31901987,1.63437086 C5.49059275,0.462797986 7.39008768,0.462797986 8.56166056,1.63437086 Z" id="Combined-Shape-Copy" fill="#31C3BD"></path>
                    <path d="M56.0998009,0 C64.8648916,0 71.9704015,7.10550992 71.9704015,15.8706006 C71.9704015,24.6356913 64.8648916,31.7412012 56.0998009,31.7412012 C47.3347102,31.7412012 40.2292003,24.6356913 40.2292003,15.8706006 C40.2292003,7.10550992 47.3347102,0 56.0998009,0 Z M56.0998009,9.40480036 C52.5288381,9.40480036 49.6340007,12.2996377 49.6340007,15.8706006 C49.6340007,19.4415635 52.5288381,22.3364009 56.0998009,22.3364009 C59.6707638,22.3364009 62.5656012,19.4415635 62.5656012,15.8706006 C62.5656012,12.2996377 59.6707638,9.40480036 56.0998009,9.40480036 Z" id="Oval-Copy" fill="#F2B137" fill-rule="nonzero"></path>
                </g>
            </g>
        </g>
    </g>
</svg>